<mxfile host="app.diagrams.net" modified="2023-12-14T10:01:09.928Z" agent="Mozilla/5.0 (X11; Linux x86_64; rv:120.0) Gecko/20100101 Firefox/120.0" etag="Z_hMutj7cHsJ8-5W_73-" version="22.1.8" type="device">
  <diagram id="cP5aK-2l6MVHGxgbmIja" name="bdd">
    <mxGraphModel dx="710" dy="941" grid="1" gridSize="10" guides="1" tooltips="1" connect="1" arrows="1" fold="1" page="1" pageScale="1" pageWidth="850" pageHeight="1100" math="0" shadow="0">
      <root>
        <mxCell id="0" />
        <mxCell id="1" parent="0" />
        <mxCell id="YcovKsiL6sOtGHQFJfTx-1" value="&lt;p style=&quot;margin:0px;margin-top:4px;margin-left:10px;text-align:left;&quot;&gt;&lt;b&gt;bdd&lt;/b&gt;   Notbremsung&lt;/p&gt;" style="html=1;shape=mxgraph.sysml.package;labelX=120;align=left;spacingLeft=10;overflow=fill;recursiveResize=0;" parent="1" vertex="1">
          <mxGeometry x="20" y="20" width="1010" height="670" as="geometry" />
        </mxCell>
        <mxCell id="YcovKsiL6sOtGHQFJfTx-5" value="&lt;p style=&quot;margin: 4px 0px 0px;&quot;&gt;&amp;lt;&amp;lt;constraint&amp;gt;&amp;gt;&lt;br&gt;&lt;b&gt;Objekttyp&lt;/b&gt;&lt;/p&gt;&lt;hr&gt;&lt;p style=&quot;font-size: 10px; margin: 4px 0px 0px;&quot;&gt;&lt;i&gt;constraints&lt;/i&gt;&lt;/p&gt;&lt;p style=&quot;margin: 4px 0px 0px 10px; text-align: left;&quot;&gt;{IF NOT o = Mensch or o = Glas Then result = true}&lt;br&gt;&lt;/p&gt;&lt;hr&gt;&lt;p style=&quot;font-size: 10px; margin: 4px 0px 0px;&quot;&gt;&lt;i&gt;parameters&lt;/i&gt;&lt;/p&gt;&lt;p style=&quot;margin: 4px 0px 0px 10px; text-align: left;&quot;&gt;o: {Metall, Glas, Stein, Schnee, Laub, Tier, Mensch}&lt;/p&gt;" style="shape=rect;html=1;overflow=fill;whiteSpace=wrap;" parent="1" vertex="1">
          <mxGeometry x="60" y="80" width="200" height="170" as="geometry" />
        </mxCell>
        <mxCell id="YcovKsiL6sOtGHQFJfTx-7" value="&lt;p style=&quot;margin:0px;margin-top:4px;text-align:center;&quot;&gt;&amp;lt;&amp;lt;constraint&amp;gt;&amp;gt;&lt;br&gt;&lt;b&gt;Entscheidung - Notbremsung&lt;/b&gt;&lt;/p&gt;&lt;hr&gt;&lt;p style=&quot;font-size:10px;margin:0px;margin-top:4px;text-align:center;&quot;&gt;&lt;i&gt;constraints&lt;/i&gt;&lt;/p&gt;&lt;p style=&quot;margin:0px;margin-top:4px;margin-left:10px;text-align:left;&quot;&gt;{IF a = true THEN result = yes}&lt;br&gt;&lt;/p&gt;&lt;hr&gt;&lt;p style=&quot;font-size:10px;margin:0px;margin-top:4px;text-align:center;&quot;&gt;&lt;i&gt;parameters&lt;/i&gt;&lt;/p&gt;&lt;p style=&quot;margin:0px;margin-top:4px;margin-left:10px;text-align:left;&quot;&gt;a: bool&lt;/p&gt;" style="shape=rect;html=1;overflow=fill;whiteSpace=wrap;" parent="1" vertex="1">
          <mxGeometry x="540" y="80" width="200" height="140" as="geometry" />
        </mxCell>
        <mxCell id="YcovKsiL6sOtGHQFJfTx-8" value="&lt;p style=&quot;margin:0px;margin-top:4px;text-align:center;&quot;&gt;&amp;lt;&amp;lt;constraint&amp;gt;&amp;gt;&lt;br&gt;&lt;b&gt;And&lt;/b&gt;&lt;/p&gt;&lt;hr&gt;&lt;p style=&quot;font-size:10px;margin:0px;margin-top:4px;text-align:center;&quot;&gt;&lt;i&gt;constraints&lt;/i&gt;&lt;/p&gt;&lt;p style=&quot;margin:0px;margin-top:4px;margin-left:10px;text-align:left;&quot;&gt;{IF a and b = true THEN result = true}&lt;br&gt;&lt;/p&gt;&lt;hr&gt;&lt;p style=&quot;font-size:10px;margin:0px;margin-top:4px;text-align:center;&quot;&gt;&lt;i&gt;parameters&lt;/i&gt;&lt;/p&gt;&lt;p style=&quot;margin:0px;margin-top:4px;margin-left:10px;text-align:left;&quot;&gt;a: bool&lt;br&gt;&lt;/p&gt;&lt;p style=&quot;margin:0px;margin-top:4px;margin-left:10px;text-align:left;&quot;&gt;b: bool&lt;br&gt;&lt;/p&gt;" style="shape=rect;html=1;overflow=fill;whiteSpace=wrap;" parent="1" vertex="1">
          <mxGeometry x="300" y="80" width="200" height="160" as="geometry" />
        </mxCell>
        <mxCell id="YcovKsiL6sOtGHQFJfTx-9" value="&lt;p style=&quot;margin: 4px 0px 0px;&quot;&gt;&amp;lt;&amp;lt;constraint&amp;gt;&amp;gt;&lt;br&gt;&lt;b&gt;Kollisionskurs&lt;/b&gt;&lt;/p&gt;&lt;hr&gt;&lt;p style=&quot;font-size: 10px; margin: 4px 0px 0px;&quot;&gt;&lt;i&gt;constraints&lt;/i&gt;&lt;/p&gt;&lt;p style=&quot;margin: 4px 0px 0px 10px; text-align: left;&quot;&gt;{IF v u. v1 schneiden von p u. p1 THEN result = true}&lt;br&gt;&lt;/p&gt;&lt;hr&gt;&lt;p style=&quot;font-size: 10px; margin: 4px 0px 0px;&quot;&gt;&lt;i&gt;parameters&lt;/i&gt;&lt;/p&gt;&lt;p style=&quot;margin: 4px 0px 0px 10px; text-align: left;&quot;&gt;v: vector&lt;/p&gt;&lt;p style=&quot;margin: 4px 0px 0px 10px; text-align: left;&quot;&gt;v1: vector&lt;/p&gt;&lt;p style=&quot;margin: 4px 0px 0px 10px; text-align: left;&quot;&gt;p: position&lt;/p&gt;&lt;p style=&quot;margin: 4px 0px 0px 10px; text-align: left;&quot;&gt;p1: position&lt;/p&gt;" style="shape=rect;html=1;overflow=fill;whiteSpace=wrap;" parent="1" vertex="1">
          <mxGeometry x="780" y="290" width="200" height="195" as="geometry" />
        </mxCell>
        <mxCell id="YcovKsiL6sOtGHQFJfTx-10" value="&lt;p style=&quot;margin: 4px 0px 0px;&quot;&gt;&amp;lt;&amp;lt;constraint&amp;gt;&amp;gt;&lt;br&gt;&lt;b&gt;Bremsweg&lt;/b&gt;&lt;/p&gt;&lt;hr&gt;&lt;p style=&quot;font-size: 10px; margin: 4px 0px 0px;&quot;&gt;&lt;i&gt;constraints&lt;/i&gt;&lt;/p&gt;&lt;p style=&quot;margin: 4px 0px 0px 10px; text-align: left;&quot;&gt;{result = v * v / 100 * p}&lt;br&gt;&lt;/p&gt;&lt;hr&gt;&lt;p style=&quot;font-size: 10px; margin: 4px 0px 0px;&quot;&gt;&lt;i&gt;parameters&lt;/i&gt;&lt;/p&gt;&lt;p style=&quot;margin: 4px 0px 0px 10px; text-align: left;&quot;&gt;v: km/h&lt;/p&gt;&lt;p style=&quot;margin: 4px 0px 0px 10px; text-align: left;&quot;&gt;p: Gefahrenfaktor&lt;br&gt;&lt;/p&gt;" style="shape=rect;html=1;overflow=fill;whiteSpace=wrap;" parent="1" vertex="1">
          <mxGeometry x="60" y="480" width="200" height="150" as="geometry" />
        </mxCell>
        <mxCell id="YcovKsiL6sOtGHQFJfTx-12" value="&lt;p style=&quot;margin:0px;margin-top:4px;text-align:center;&quot;&gt;&amp;lt;&amp;lt;constraint&amp;gt;&amp;gt;&lt;br&gt;&lt;b&gt;Objektgröße gefährliche Objekte&lt;/b&gt;&lt;/p&gt;&lt;hr&gt;&lt;p style=&quot;font-size:10px;margin:0px;margin-top:4px;text-align:center;&quot;&gt;&lt;i&gt;constraints&lt;/i&gt;&lt;/p&gt;&lt;p style=&quot;margin:0px;margin-top:4px;margin-left:10px;text-align:left;&quot;&gt;{IF h &amp;gt; 0,1 THEN result = true}&lt;br&gt;&lt;/p&gt;&lt;hr&gt;&lt;p style=&quot;font-size:10px;margin:0px;margin-top:4px;text-align:center;&quot;&gt;&lt;i&gt;parameters&lt;/i&gt;&lt;/p&gt;&lt;p style=&quot;margin:0px;margin-top:4px;margin-left:10px;text-align:left;&quot;&gt;h: Meter&lt;br&gt;&lt;/p&gt;" style="shape=rect;html=1;overflow=fill;whiteSpace=wrap;" parent="1" vertex="1">
          <mxGeometry x="300" y="290" width="200" height="140" as="geometry" />
        </mxCell>
        <mxCell id="YcovKsiL6sOtGHQFJfTx-13" value="&lt;p style=&quot;margin: 4px 0px 0px;&quot;&gt;&amp;lt;&amp;lt;constraint&amp;gt;&amp;gt;&lt;/p&gt;&lt;p style=&quot;margin: 4px 0px 0px;&quot;&gt;&lt;b&gt;Puffer Bremsweg&lt;/b&gt;&lt;br&gt;&lt;/p&gt;&lt;hr&gt;&lt;p style=&quot;font-size: 10px; margin: 4px 0px 0px;&quot;&gt;&lt;i&gt;constraints&lt;/i&gt;&lt;/p&gt;&lt;p style=&quot;margin: 4px 0px 0px 10px; text-align: left;&quot;&gt;{result = 1,2 * e}&lt;br&gt;&lt;/p&gt;&lt;hr&gt;&lt;p style=&quot;font-size: 10px; margin: 4px 0px 0px;&quot;&gt;&lt;i&gt;parameters&lt;/i&gt;&lt;/p&gt;&lt;p style=&quot;margin: 4px 0px 0px 10px; text-align: left;&quot;&gt;e : Meter&lt;/p&gt;" style="shape=rect;html=1;overflow=fill;whiteSpace=wrap;" parent="1" vertex="1">
          <mxGeometry x="540" y="290" width="200" height="150" as="geometry" />
        </mxCell>
        <mxCell id="YcovKsiL6sOtGHQFJfTx-14" value="&lt;p style=&quot;margin: 4px 0px 0px;&quot;&gt;&amp;lt;&amp;lt;constraint&amp;gt;&amp;gt;&lt;br&gt;&lt;b&gt;Kleiner oder Gleich&lt;/b&gt;&lt;br&gt;&lt;/p&gt;&lt;hr&gt;&lt;p style=&quot;font-size: 10px; margin: 4px 0px 0px;&quot;&gt;&lt;i&gt;constraints&lt;/i&gt;&lt;/p&gt;&lt;p style=&quot;margin: 4px 0px 0px 10px; text-align: left;&quot;&gt;{IF e &amp;lt;= w Then result = true}&lt;br&gt;&lt;/p&gt;&lt;hr&gt;&lt;p style=&quot;font-size: 10px; margin: 4px 0px 0px;&quot;&gt;&lt;i&gt;parameters&lt;/i&gt;&lt;/p&gt;&lt;p style=&quot;margin: 4px 0px 0px 10px; text-align: left;&quot;&gt;w: int&lt;/p&gt;&lt;p style=&quot;margin: 4px 0px 0px 10px; text-align: left;&quot;&gt;e : int&lt;/p&gt;" style="shape=rect;html=1;overflow=fill;whiteSpace=wrap;" parent="1" vertex="1">
          <mxGeometry x="60" y="290" width="200" height="150" as="geometry" />
        </mxCell>
        <mxCell id="0zBbUDFgHmEUHGAQRZg0-1" value="&lt;p style=&quot;margin:0px;margin-top:4px;text-align:center;&quot;&gt;&amp;lt;&amp;lt;constraint&amp;gt;&amp;gt;&lt;br&gt;&lt;b&gt;NAND&lt;/b&gt;&lt;/p&gt;&lt;hr&gt;&lt;p style=&quot;font-size:10px;margin:0px;margin-top:4px;text-align:center;&quot;&gt;&lt;i&gt;constraints&lt;/i&gt;&lt;/p&gt;&lt;p style=&quot;margin:0px;margin-top:4px;margin-left:10px;text-align:left;&quot;&gt;{IF NOT a and b = true THEN result = true}&lt;br&gt;&lt;/p&gt;&lt;hr&gt;&lt;p style=&quot;font-size:10px;margin:0px;margin-top:4px;text-align:center;&quot;&gt;&lt;i&gt;parameters&lt;/i&gt;&lt;/p&gt;&lt;p style=&quot;margin:0px;margin-top:4px;margin-left:10px;text-align:left;&quot;&gt;a: bool&lt;br&gt;&lt;/p&gt;&lt;p style=&quot;margin:0px;margin-top:4px;margin-left:10px;text-align:left;&quot;&gt;b: bool&lt;br&gt;&lt;/p&gt;" style="shape=rect;html=1;overflow=fill;whiteSpace=wrap;" parent="1" vertex="1">
          <mxGeometry x="780" y="80" width="200" height="160" as="geometry" />
        </mxCell>
      </root>
    </mxGraphModel>
  </diagram>
</mxfile>
